<svg width="551" height="134" viewBox="0 0 551 134" fill="none" xmlns="http://www.w3.org/2000/svg">
<path d="M38.9204 107.064C33.4659 107.064 28.6506 105.686 24.4744 102.93C20.2983 100.146 17.0312 96.2256 14.6733 91.1687C12.3153 86.0835 11.1364 80.075 11.1364 73.1432C11.1364 66.2682 12.3153 60.3023 14.6733 55.2455C17.0312 50.1886 20.3125 46.2824 24.517 43.5267C28.7216 40.771 33.5795 39.3932 39.0909 39.3932C43.3523 39.3932 46.7187 40.1034 49.1903 41.5239C51.6903 42.9159 53.5937 44.5068 54.9006 46.2966C56.2358 48.058 57.2727 49.5068 58.0114 50.6432H58.8636V18.4273H68.9204V105.7H59.2045V95.6432H58.0114C57.2727 96.8364 56.2216 98.342 54.8579 100.16C53.4943 101.95 51.5483 103.555 49.0199 104.976C46.4915 106.368 43.125 107.064 38.9204 107.064ZM40.2841 98.0295C44.3182 98.0295 47.7273 96.9784 50.5114 94.8761C53.2954 92.7455 55.4119 89.8051 56.8608 86.0551C58.3096 82.2767 59.0341 77.9159 59.0341 72.9727C59.0341 68.0864 58.3239 63.8108 56.9034 60.146C55.4829 56.4528 53.3807 53.5835 50.5966 51.5381C47.8125 49.4642 44.375 48.4273 40.2841 48.4273C36.0227 48.4273 32.4716 49.521 29.6307 51.7085C26.8182 53.8676 24.7017 56.808 23.2812 60.5295C21.8892 64.2227 21.1932 68.3705 21.1932 72.9727C21.1932 77.6318 21.9034 81.8648 23.3239 85.6716C24.7727 89.45 26.9034 92.4614 29.7159 94.7057C32.5568 96.9216 36.0795 98.0295 40.2841 98.0295Z" fill="#F39C12"/>
<path d="M107.997 107.234C103.849 107.234 100.085 106.453 96.7045 104.89C93.3239 103.299 90.6392 101.012 88.6506 98.0295C86.6619 95.0182 85.6676 91.3818 85.6676 87.1205C85.6676 83.3705 86.4062 80.3307 87.8835 78.0011C89.3608 75.6432 91.3352 73.7966 93.8068 72.4614C96.2784 71.1261 99.0057 70.1318 101.989 69.4784C105 68.7966 108.026 68.2568 111.065 67.8591C115.043 67.3477 118.267 66.9642 120.739 66.7085C123.239 66.4244 125.057 65.9557 126.193 65.3023C127.358 64.6489 127.94 63.5125 127.94 61.8932V61.5523C127.94 57.3477 126.79 54.0807 124.489 51.7511C122.216 49.4216 118.764 48.2568 114.134 48.2568C109.332 48.2568 105.568 49.308 102.841 51.4102C100.114 53.5125 98.196 55.7568 97.0881 58.1432L87.5426 54.7341C89.2471 50.7568 91.5199 47.6602 94.3608 45.4443C97.2301 43.2 100.355 41.6375 103.736 40.7568C107.145 39.8477 110.497 39.3932 113.793 39.3932C115.895 39.3932 118.31 39.6489 121.037 40.1602C123.793 40.6432 126.449 41.6517 129.006 43.1858C131.591 44.7199 133.736 47.0352 135.44 50.1318C137.145 53.2284 137.997 57.3761 137.997 62.575V105.7H127.94V96.8364H127.429C126.747 98.2568 125.611 99.7767 124.02 101.396C122.429 103.015 120.312 104.393 117.67 105.53C115.028 106.666 111.804 107.234 107.997 107.234ZM109.531 98.2C113.509 98.2 116.861 97.4187 119.588 95.8562C122.344 94.2937 124.418 92.2767 125.81 89.8051C127.23 87.3335 127.94 84.7341 127.94 82.0068V72.8023C127.514 73.3136 126.577 73.7824 125.128 74.2085C123.707 74.6062 122.06 74.9614 120.185 75.2739C118.338 75.558 116.534 75.8136 114.773 76.0409C113.04 76.2398 111.634 76.4102 110.554 76.5523C107.94 76.8932 105.497 77.4472 103.224 78.2142C100.98 78.9528 99.1619 80.075 97.7699 81.5807C96.4062 83.058 95.7244 85.075 95.7244 87.6318C95.7244 91.1261 97.017 93.7682 99.6023 95.558C102.216 97.3193 105.526 98.2 109.531 98.2Z" fill="#F39C12"/>
<path d="M184.819 40.2455V48.7682H150.898V40.2455H184.819ZM160.785 24.5636H170.842V86.95C170.842 89.7909 171.254 91.9216 172.077 93.342C172.93 94.7341 174.009 95.6716 175.316 96.1545C176.651 96.6091 178.058 96.8364 179.535 96.8364C180.643 96.8364 181.552 96.7795 182.262 96.6659C182.972 96.5239 183.54 96.4102 183.967 96.325L186.012 105.359C185.33 105.615 184.379 105.87 183.157 106.126C181.935 106.41 180.387 106.552 178.512 106.552C175.671 106.552 172.887 105.941 170.16 104.72C167.461 103.498 165.217 101.637 163.427 99.1375C161.665 96.6375 160.785 93.4841 160.785 89.6773V24.5636Z" fill="#F39C12"/>
<path d="M226.687 107.064C220.38 107.064 214.94 105.672 210.366 102.887C205.82 100.075 202.312 96.1545 199.84 91.1261C197.397 86.0693 196.175 80.1886 196.175 73.4841C196.175 66.7795 197.397 60.8705 199.84 55.7568C202.312 50.6148 205.749 46.6091 210.153 43.7398C214.585 40.842 219.755 39.3932 225.664 39.3932C229.073 39.3932 232.44 39.9614 235.763 41.0977C239.087 42.2341 242.113 44.0807 244.84 46.6375C247.567 49.1659 249.741 52.5182 251.36 56.6943C252.979 60.8705 253.789 66.0125 253.789 72.1205V76.3818H203.335V67.6886H243.562C243.562 63.9955 242.823 60.7 241.346 57.8023C239.897 54.9045 237.823 52.6176 235.124 50.9415C232.454 49.2653 229.3 48.4273 225.664 48.4273C221.658 48.4273 218.192 49.4216 215.266 51.4102C212.369 53.3705 210.138 55.9273 208.576 59.0807C207.013 62.2341 206.232 65.6148 206.232 69.2227V75.0182C206.232 79.9614 207.085 84.1517 208.789 87.5892C210.522 90.9983 212.923 93.5977 215.991 95.3875C219.059 97.1489 222.624 98.0295 226.687 98.0295C229.329 98.0295 231.715 97.6602 233.846 96.9216C236.005 96.1545 237.866 95.0182 239.428 93.5125C240.991 91.9784 242.198 90.075 243.05 87.8023L252.766 90.5295C251.744 93.825 250.025 96.7227 247.61 99.2227C245.195 101.694 242.212 103.626 238.661 105.018C235.11 106.382 231.119 107.064 226.687 107.064Z" fill="#F39C12"/>
<path d="M279.144 66.325V105.7H269.087V40.2455H278.803V50.4727H279.656C281.19 47.1489 283.519 44.4784 286.644 42.4614C289.769 40.4159 293.803 39.3932 298.746 39.3932C303.178 39.3932 307.056 40.3023 310.38 42.1205C313.704 43.9102 316.289 46.6375 318.136 50.3023C319.982 53.9386 320.906 58.5409 320.906 64.1091V105.7H310.849V64.7909C310.849 59.6489 309.513 55.6432 306.843 52.7739C304.173 49.8761 300.508 48.4273 295.849 48.4273C292.638 48.4273 289.769 49.1233 287.241 50.5153C284.741 51.9074 282.766 53.9386 281.317 56.6091C279.869 59.2795 279.144 62.5182 279.144 66.325Z" fill="#F39C12"/>
<path d="M351.534 106.382C349.432 106.382 347.628 105.629 346.122 104.123C344.616 102.618 343.864 100.814 343.864 98.7114C343.864 96.6091 344.616 94.8051 346.122 93.2994C347.628 91.7937 349.432 91.0409 351.534 91.0409C353.636 91.0409 355.44 91.7937 356.946 93.2994C358.452 94.8051 359.205 96.6091 359.205 98.7114C359.205 100.103 358.849 101.382 358.139 102.547C357.457 103.711 356.534 104.649 355.369 105.359C354.233 106.041 352.955 106.382 351.534 106.382Z" fill="#0F766E"/>
<path d="M377.251 130.245V40.2455H386.967V50.6432H388.161C388.899 49.5068 389.922 48.058 391.229 46.2966C392.564 44.5068 394.467 42.9159 396.939 41.5239C399.439 40.1034 402.82 39.3932 407.081 39.3932C412.592 39.3932 417.45 40.771 421.655 43.5267C425.859 46.2824 429.141 50.1886 431.499 55.2455C433.857 60.3023 435.036 66.2682 435.036 73.1432C435.036 80.075 433.857 86.0835 431.499 91.1687C429.141 96.2256 425.874 100.146 421.697 102.93C417.521 105.686 412.706 107.064 407.251 107.064C403.047 107.064 399.68 106.368 397.152 104.976C394.624 103.555 392.678 101.95 391.314 100.16C389.95 98.342 388.899 96.8364 388.161 95.6432H387.308V130.245H377.251ZM387.138 72.9727C387.138 77.9159 387.862 82.2767 389.311 86.0551C390.76 89.8051 392.876 92.7455 395.661 94.8761C398.445 96.9784 401.854 98.0295 405.888 98.0295C410.092 98.0295 413.601 96.9216 416.413 94.7057C419.254 92.4614 421.385 89.45 422.805 85.6716C424.254 81.8648 424.979 77.6318 424.979 72.9727C424.979 68.3705 424.268 64.2227 422.848 60.5295C421.456 56.808 419.339 53.8676 416.499 51.7085C413.686 49.521 410.149 48.4273 405.888 48.4273C401.797 48.4273 398.359 49.4642 395.575 51.5381C392.791 53.5835 390.689 56.4528 389.268 60.146C387.848 63.8108 387.138 68.0864 387.138 72.9727Z" fill="#0F766E"/>
<path d="M450.376 105.7V40.2455H460.092V50.4727H460.945C462.308 46.9784 464.51 44.2653 467.55 42.3335C470.59 40.3733 474.24 39.3932 478.501 39.3932C482.82 39.3932 486.413 40.3733 489.283 42.3335C492.18 44.2653 494.439 46.9784 496.058 50.4727H496.74C498.416 47.092 500.93 44.4074 504.283 42.4187C507.635 40.4017 511.655 39.3932 516.342 39.3932C522.195 39.3932 526.982 41.2256 530.703 44.8903C534.425 48.5267 536.286 54.1943 536.286 61.8932V105.7H526.229V61.8932C526.229 57.0636 524.908 53.6119 522.266 51.5381C519.624 49.4642 516.513 48.4273 512.933 48.4273C508.331 48.4273 504.766 49.8193 502.237 52.6034C499.709 55.3591 498.445 58.8534 498.445 63.0864V105.7H488.217V60.8705C488.217 57.1489 487.01 54.1517 484.595 51.879C482.18 49.5778 479.07 48.4273 475.263 48.4273C472.649 48.4273 470.206 49.1233 467.933 50.5153C465.689 51.9074 463.871 53.8392 462.479 56.3108C461.115 58.754 460.433 61.5807 460.433 64.7909V105.7H450.376Z" fill="#0F766E"/>
</svg>
